<svg viewBox="0 0 16 16" fill="none" xmlns="http://www.w3.org/2000/svg">
<g clip-path="url(#clip0_7_152)">
<path d="M9.33336 8.26614C9.77518 8.26614 10.1334 7.91988 10.1334 7.49275C10.1334 7.06562 9.77518 6.71936 9.33336 6.71936C8.89153 6.71936 8.53336 7.06562 8.53336 7.49275C8.53336 7.91988 8.89153 8.26614 9.33336 8.26614Z" fill="currentColor"/>
<path d="M12 8.26614C12.4419 8.26614 12.8 7.91988 12.8 7.49275C12.8 7.06562 12.4419 6.71936 12 6.71936C11.5582 6.71936 11.2 7.06562 11.2 7.49275C11.2 7.91988 11.5582 8.26614 12 8.26614Z" fill="currentColor"/>
<path d="M9.33336 10.844C9.77518 10.844 10.1334 10.4978 10.1334 10.0706C10.1334 9.6435 9.77518 9.29724 9.33336 9.29724C8.89153 9.29724 8.53336 9.6435 8.53336 10.0706C8.53336 10.4978 8.89153 10.844 9.33336 10.844Z" fill="currentColor"/>
<path d="M12 10.844C12.4419 10.844 12.8 10.4978 12.8 10.0706C12.8 9.6435 12.4419 9.29724 12 9.29724C11.5582 9.29724 11.2 9.6435 11.2 10.0706C11.2 10.4978 11.5582 10.844 12 10.844Z" fill="currentColor"/>
<path d="M4.00004 10.844C4.44187 10.844 4.80004 10.4978 4.80004 10.0706C4.80004 9.6435 4.44187 9.29724 4.00004 9.29724C3.55821 9.29724 3.20004 9.6435 3.20004 10.0706C3.20004 10.4978 3.55821 10.844 4.00004 10.844Z" fill="currentColor"/>
<path d="M6.6667 10.844C7.10853 10.844 7.4667 10.4978 7.4667 10.0706C7.4667 9.6435 7.10853 9.29724 6.6667 9.29724C6.22487 9.29724 5.8667 9.6435 5.8667 10.0706C5.8667 10.4978 6.22487 10.844 6.6667 10.844Z" fill="currentColor"/>
<path d="M4.00004 13.422C4.44187 13.422 4.80004 13.0758 4.80004 12.6486C4.80004 12.2215 4.44187 11.8752 4.00004 11.8752C3.55821 11.8752 3.20004 12.2215 3.20004 12.6486C3.20004 13.0758 3.55821 13.422 4.00004 13.422Z" fill="currentColor"/>
<path d="M6.6667 13.422C7.10853 13.422 7.4667 13.0758 7.4667 12.6486C7.4667 12.2215 7.10853 11.8752 6.6667 11.8752C6.22487 11.8752 5.8667 12.2215 5.8667 12.6486C5.8667 13.0758 6.22487 13.422 6.6667 13.422Z" fill="currentColor"/>
<path d="M9.33336 13.422C9.77518 13.422 10.1334 13.0758 10.1334 12.6486C10.1334 12.2215 9.77518 11.8752 9.33336 11.8752C8.89153 11.8752 8.53336 12.2215 8.53336 12.6486C8.53336 13.0758 8.89153 13.422 9.33336 13.422Z" fill="currentColor"/>
<path fill-rule="evenodd" clip-rule="evenodd" d="M3.73335 0.0166158C4.0374 0.0166158 4.33067 0.279517 4.33067 0.573457V1.56338H11.6693V0.573457C11.6693 0.279517 11.9626 0 12.2667 0C12.5707 0 12.864 0.279517 12.864 0.573457V1.56338H13.3334C14.9333 1.56338 16 2.59457 16 4.14137V13.422C16 14.9688 14.9333 16 13.3334 16H2.66668C1.06667 16 0 14.9688 0 13.422V4.14137C0 2.59457 1.06667 1.56338 2.66668 1.56338H3.136V0.573457C3.136 0.279517 3.4293 0.0166158 3.73335 0.0166158ZM2.66668 3.12681C2.08708 3.12681 1.61722 3.58104 1.61722 4.14137V4.64033H14.3828V4.14137C14.3828 3.58104 13.913 3.12681 13.3334 3.12681H2.66668ZM14.3828 5.70478H1.61722V13.422C1.61722 13.9824 2.08708 14.4366 2.66668 14.4366H13.3334C13.913 14.4366 14.3828 13.9824 14.3828 13.422V5.70478Z" fill="currentColor"/>
</g>
<defs>
<clipPath id="clip0_7_152">
<rect width="16" height="16" fill="white"/>
</clipPath>
</defs>
</svg>
