<svg viewBox="0 0 16 16" fill="none" xmlns="http://www.w3.org/2000/svg">
<g clip-path="url(#clip0_7_151)">
<path d="M8 0C3.58214 0 0 3.58214 0 8C0 12.4179 3.58214 16 8 16C12.4179 16 16 12.4179 16 8C16 3.58214 12.4179 0 8 0ZM8 14.0887C4.88626 14.0887 1.91126 11.6679 1.91126 8C1.91126 4.88626 4.88626 1.91126 8 1.91126C11.1137 1.91126 14.0887 4.88626 14.0887 8C14.0887 11.1137 11.1137 14.0887 8 14.0887Z" fill="currentColor"/>
<path d="M11.5691 10.497L8.64788 7.89585V3.73162C8.64788 3.65122 8.57413 3.58543 8.48399 3.58543H7.31756C7.22742 3.58543 7.15367 3.65122 7.15367 3.73162V8.53984C7.15367 8.58735 7.17826 8.63121 7.22128 8.65862L10.6422 11.5875C10.716 11.635 10.8184 11.6204 10.8717 11.5564L11.606 10.7016C11.6593 10.634 11.6429 10.5427 11.5691 10.497Z" fill="currentColor"/>
</g>
<defs>
<clipPath id="clip0_7_151">
<rect width="16" height="16" fill="white"/>
</clipPath>
</defs>
</svg>
