<svg preserveAspectRatio="none" viewBox="0 0 16 16" fill="none" xmlns="http://www.w3.org/2000/svg">
<g clip-path="url(#clip0_7_153)">
<path fill-rule="evenodd" clip-rule="evenodd" d="M5.75 0C6.15667 4.79267 2 6.44267 2 10.664C2 13.5313 4.046 15.9787 8 16C11.954 16.0213 14 13.0573 14 10.0293C14 7.26867 12.6253 4.66533 10.032 3.04667C10.648 4.78467 9.828 6.372 9.03133 6.91867C9.078 4.694 8.28133 1.39267 5.75 0ZM8.89067 8.66667C11.394 11.326 9.85667 14.6667 7.846 14.6667C6.62267 14.6667 5.99333 13.8233 6 12.9487C6.01267 11.3267 7.82467 11.3253 8.89067 8.66667Z" fill="currentColor"/>
</g>
<defs>
<clipPath id="clip0_7_153">
<rect width="16" height="16" fill="none"/>
</clipPath>
</defs>
</svg>
