<svg viewBox="0 0 16 16" fill="none" xmlns="http://www.w3.org/2000/svg">
<path d="M14.9434 1.9135C14.8467 1.7825 14.7415 1.65364 14.6319 1.52908C14.2225 1.04991 13.714 0.665179 13.1415 0.401379C12.5691 0.13758 11.9463 0.000976562 11.316 0.000976562C10.6857 0.000976562 10.0629 0.13758 9.49041 0.401379C8.91796 0.665179 8.40949 1.04991 8 1.52908C7.59051 1.04991 7.08204 0.665179 6.50959 0.401379C5.93715 0.13758 5.31433 0.000976562 4.68402 0.000976562C4.05372 0.000976563 3.43091 0.13758 2.85846 0.401379C2.28602 0.665179 1.77754 1.04991 1.36805 1.52908V1.52908C-0.455305 3.56934 -0.455305 6.8982 1.36805 8.94706L7.10013 15.3557L7.44806 15.7444C7.516 15.8245 7.60056 15.8888 7.69587 15.933C7.79119 15.9771 7.89496 16 8 16C8.10503 16 8.20882 15.9771 8.30413 15.933C8.39944 15.8888 8.484 15.8245 8.55195 15.7444L14.6319 8.94706C16.3458 7.02921 16.4489 3.96881 14.9434 1.9135Z" fill="white"/>
<path d="M14.9434 1.9135C14.8467 1.7825 14.7415 1.65364 14.6319 1.52908C14.2225 1.04991 13.714 0.665179 13.1415 0.401379C12.5691 0.13758 11.9463 0.000976562 11.316 0.000976562C10.6857 0.000976562 10.0629 0.13758 9.49041 0.401379C8.91796 0.665179 8.40949 1.04991 8 1.52908C7.59051 1.04991 7.08204 0.665179 6.50959 0.401379C5.93715 0.13758 5.31433 0.000976562 4.68402 0.000976562C4.05372 0.000976563 3.43091 0.13758 2.85846 0.401379C2.28602 0.665179 1.77754 1.04991 1.36805 1.52908V1.52908C-0.455305 3.56934 -0.455305 6.8982 1.36805 8.94706L7.10013 15.3557L7.44806 15.7444C7.516 15.8245 7.60056 15.8888 7.69587 15.933C7.79119 15.9771 7.89496 16 8 16C8.10503 16 8.20882 15.9771 8.30413 15.933C8.39944 15.8888 8.484 15.8245 8.55195 15.7444L14.6319 8.94706C16.3458 7.02921 16.4489 3.96881 14.9434 1.9135ZM4.28241 3.34384C3.68287 3.95426 3.21882 4.68427 2.92054 5.4862C2.62227 6.28813 2.49649 7.14396 2.55141 7.9978C1.85537 7.25952 1.47166 6.28077 1.48046 5.26615C1.48927 4.25154 1.88991 3.27959 2.59866 2.5535V2.5535C2.67884 2.47476 2.76045 2.40317 2.84349 2.33874C3.39114 2.60934 3.93664 2.88854 4.4757 3.17203C4.41127 3.22142 4.3447 3.28156 4.28241 3.34384ZM5.00832 2.72102C4.48859 2.44612 3.96671 2.17767 3.43839 1.9135C3.97081 1.61383 4.56729 1.44613 5.17787 1.42445C5.78845 1.40278 6.39533 1.52777 6.94765 1.78894C6.25006 1.97953 5.59293 2.29536 5.00832 2.72102V2.72102Z" fill="url(#paint0_radial_103_1432)"/>
<defs>
<radialGradient id="paint0_radial_103_1432" cx="0" cy="0" r="1" gradientUnits="userSpaceOnUse" gradientTransform="translate(13.6576 8.09129) rotate(-34.804) scale(12.328 7.63564)">
<stop stop-color="#B14300"/>
<stop offset="0.1" stop-color="#B94E02"/>
<stop offset="0.71" stop-color="#E89311"/>
<stop offset="1" stop-color="#FBAE17"/>
</radialGradient>
</defs>
</svg>
