<svg viewBox="0 0 16 16" fill="none" xmlns="http://www.w3.org/2000/svg">
<path d="M14.9428 1.91253C14.844 1.77937 14.7409 1.65266 14.6314 1.5281C14.2219 1.04893 13.7134 0.664202 13.141 0.400402C12.5686 0.136603 11.9457 0 11.3154 0C10.6851 0 10.0623 0.136603 9.48987 0.400402C8.91743 0.664202 8.40895 1.04893 7.99946 1.5281C7.58997 1.04893 7.0815 0.664202 6.50906 0.400402C5.93661 0.136603 5.31379 0 4.68349 0C4.05319 0 3.43037 0.136603 2.85792 0.400402C2.28548 0.664202 1.77701 1.04893 1.36752 1.5281V1.5281C-0.455839 3.56837 -0.455839 6.89723 1.36752 8.94394L7.0996 15.3525L7.44752 15.7434C7.51546 15.8235 7.60002 15.8879 7.69534 15.932C7.79065 15.9761 7.89443 15.999 7.99946 15.999C8.1045 15.999 8.20828 15.9761 8.30359 15.932C8.3989 15.8879 8.48347 15.8235 8.55141 15.7434L14.6314 8.94394C16.3452 7.02823 16.4483 3.96783 14.9428 1.91253Z" fill="white"/>
<path d="M14.9428 1.91253C14.844 1.77937 14.7409 1.65266 14.6314 1.5281C14.2219 1.04893 13.7134 0.664202 13.141 0.400402C12.5686 0.136603 11.9457 0 11.3154 0C10.6851 0 10.0623 0.136603 9.48987 0.400402C8.91743 0.664202 8.40895 1.04893 7.99946 1.5281C7.58997 1.04893 7.0815 0.664202 6.50906 0.400402C5.93661 0.136603 5.31379 0 4.68349 0C4.05319 0 3.43037 0.136603 2.85792 0.400402C2.28548 0.664202 1.77701 1.04893 1.36752 1.5281C-0.455839 3.56837 -0.455839 6.89723 1.36752 8.94394L7.0996 15.3525L7.44752 15.7434C7.51546 15.8235 7.60002 15.8879 7.69534 15.932C7.79065 15.9761 7.89443 15.999 7.99946 15.999C8.1045 15.999 8.20828 15.9761 8.30359 15.932C8.3989 15.8879 8.48347 15.8235 8.55141 15.7434L14.6314 8.94394C16.3452 7.02823 16.4483 3.96783 14.9428 1.91253ZM4.28188 3.34286C3.68234 3.95328 3.21828 4.68329 2.92001 5.48522C2.62173 6.28716 2.49595 7.14298 2.55087 7.99682C1.85434 7.25879 1.47028 6.27994 1.47909 5.26517C1.4879 4.25039 1.88889 3.27836 2.59812 2.55253C2.67544 2.47307 2.75919 2.3979 2.84295 2.32488C3.38989 2.59691 3.93396 2.87539 4.47517 3.16031C4.41074 3.22045 4.34416 3.27843 4.28188 3.34286ZM5.00778 2.72005C4.48805 2.44515 3.96403 2.17597 3.4357 1.91253C3.96812 1.61285 4.56461 1.44515 5.17519 1.42348C5.78576 1.40181 6.39264 1.52679 6.94497 1.78796C6.24779 1.9779 5.59125 2.29379 5.00778 2.72005Z" fill="url(#paint0_radial_103_1432)"/>
<defs>
<radialGradient id="paint0_radial_103_1432" cx="0" cy="0" r="1" gradientUnits="userSpaceOnUse" gradientTransform="translate(15.3507 8.00446) rotate(41.33) scale(9.07168 23.3142)">
<stop stop-color="#990000"/>
<stop offset="0.12" stop-color="#AB1F04"/>
<stop offset="0.33" stop-color="#C7520B"/>
<stop offset="0.54" stop-color="#DE7A10"/>
<stop offset="0.72" stop-color="#EE9614"/>
<stop offset="0.88" stop-color="#F8A816"/>
<stop offset="1" stop-color="#FBAE17"/>
</radialGradient>
</defs>
</svg>
