<svg viewBox="0 0 17 17" fill="none" xmlns="http://www.w3.org/2000/svg">
<path d="M12.32 2.94995C12.6748 2.95562 13.0244 3.03706 13.3452 3.18883C13.6659 3.3406 13.9506 3.55918 14.18 3.82994L14.37 4.06995C14.8372 4.74961 15.0713 5.56255 15.0371 6.38663C15.0028 7.2107 14.7021 8.0014 14.18 8.63994L9.39001 13.9899C9.34214 14.0468 9.28242 14.0924 9.21506 14.1237C9.14769 14.1551 9.07429 14.1713 9 14.1713C8.92571 14.1713 8.85231 14.1551 8.78494 14.1237C8.71758 14.0924 8.65786 14.0468 8.60999 13.9899L3.82001 8.63994C3.25799 7.96452 2.95026 7.1136 2.95026 6.23494C2.95026 5.35627 3.25799 4.50536 3.82001 3.82994C4.04942 3.55918 4.33406 3.3406 4.65485 3.18883C4.97564 3.03706 5.32516 2.95562 5.67999 2.94995C6.03517 2.95365 6.38534 3.03422 6.70642 3.18613C7.0275 3.33804 7.31189 3.55767 7.54001 3.82994L8.42001 4.82994C8.49398 4.90992 8.58366 4.97375 8.68347 5.0174C8.78329 5.06104 8.89106 5.08357 9 5.08357C9.10894 5.08357 9.21671 5.06104 9.31653 5.0174C9.41634 4.97375 9.50602 4.90992 9.57999 4.82994L10.46 3.82994C10.6881 3.55767 10.9725 3.33804 11.2936 3.18613C11.6147 3.03422 11.9648 2.95365 12.32 2.94995ZM12.32 0.949951C11.6888 0.955314 11.0661 1.09547 10.4935 1.36107C9.92095 1.62666 9.41174 2.01155 9 2.48994C8.59069 2.01083 8.08239 1.62613 7.5101 1.36235C6.93782 1.09857 6.31515 0.961975 5.685 0.961975C5.05485 0.961975 4.43218 1.09857 3.85989 1.36235C3.28761 1.62613 2.77931 2.01083 2.37 2.48994V2.48994C1.48498 3.5215 0.998444 4.83577 0.998444 6.19495C0.998444 7.55412 1.48498 8.8684 2.37 9.89995V9.89995L8.10001 16.31L8.45001 16.7C8.5166 16.7815 8.60049 16.8472 8.69562 16.8924C8.79074 16.9375 8.89471 16.961 9 16.961C9.10529 16.961 9.20926 16.9375 9.30438 16.8924C9.39951 16.8472 9.4834 16.7815 9.54999 16.7L15.63 9.89995C16.4521 8.93345 16.9288 7.72066 16.9849 6.45308C17.0411 5.1855 16.6734 3.93533 15.94 2.89995C15.8452 2.76653 15.7417 2.63958 15.63 2.51994V2.51994C15.2189 2.04414 14.7109 1.66153 14.1401 1.39769C13.5693 1.13385 12.9488 0.99484 12.32 0.989944V0.949951Z" fill="currentColor"/>
</svg>
