<svg viewBox="0 0 16 16" fill="none" xmlns="http://www.w3.org/2000/svg">
<g clip-path="url(#clip0_206_969)">
<path d="M7.99543 4.14631C7.76022 4.14631 7.53465 4.05287 7.36833 3.88655C7.20201 3.72024 7.10857 3.49466 7.10857 3.25945V0.889167C7.10246 0.768763 7.1209 0.648375 7.16277 0.53532C7.20464 0.422265 7.26906 0.318904 7.35212 0.231522C7.43518 0.14414 7.53513 0.0745634 7.64592 0.0270194C7.75671 -0.0205247 7.87601 -0.0450439 7.99657 -0.0450439C8.11713 -0.0450439 8.23642 -0.0205247 8.34721 0.0270194C8.458 0.0745634 8.55797 0.14414 8.64103 0.231522C8.72408 0.318904 8.78851 0.422265 8.83037 0.53532C8.87224 0.648375 8.89068 0.768763 8.88457 0.889167V3.25945C8.88397 3.49487 8.79002 3.72044 8.62334 3.88669C8.45665 4.05295 8.23085 4.14631 7.99543 4.14631V4.14631Z" fill="currentColor"/>
<path d="M15.1131 8.88913H12.7429C12.507 8.88913 12.2809 8.79545 12.1141 8.6287C11.9474 8.46195 11.8537 8.2358 11.8537 7.99998C11.8537 7.76417 11.9474 7.53801 12.1141 7.37126C12.2809 7.20452 12.507 7.11084 12.7429 7.11084H15.1131C15.349 7.11084 15.5751 7.20452 15.7419 7.37126C15.9086 7.53801 16.0023 7.76417 16.0023 7.99998C16.0023 8.2358 15.9086 8.46195 15.7419 8.6287C15.5751 8.79545 15.349 8.88913 15.1131 8.88913V8.88913Z" fill="currentColor"/>
<path d="M13.024 13.9154C12.7882 13.9154 12.5621 13.8216 12.3954 13.6549L10.72 11.9794C10.5592 11.8115 10.4706 11.5873 10.4731 11.3549C10.4756 11.1224 10.5691 10.9002 10.7335 10.7358C10.8979 10.5714 11.1201 10.4779 11.3526 10.4754C11.585 10.4729 11.8092 10.5615 11.9771 10.7223L13.6526 12.4C13.7761 12.5245 13.86 12.6827 13.8939 12.8547C13.9277 13.0268 13.9099 13.205 13.8427 13.367C13.7756 13.5289 13.662 13.6674 13.5163 13.765C13.3706 13.8626 13.1993 13.9149 13.024 13.9154V13.9154Z" fill="currentColor"/>
<path d="M7.99543 16C7.76001 15.9994 7.53444 15.9055 7.36819 15.7388C7.20194 15.5721 7.10857 15.3463 7.10857 15.1109V12.7406C7.10246 12.6202 7.1209 12.4998 7.16277 12.3868C7.20464 12.2737 7.26906 12.1703 7.35212 12.083C7.43518 11.9956 7.53513 11.926 7.64592 11.8785C7.75671 11.8309 7.87601 11.8064 7.99657 11.8064C8.11713 11.8064 8.23642 11.8309 8.34721 11.8785C8.458 11.926 8.55797 11.9956 8.64103 12.083C8.72408 12.1703 8.78851 12.2737 8.83037 12.3868C8.87224 12.4998 8.89068 12.6202 8.88457 12.7406V15.1109C8.88457 15.3467 8.79089 15.5729 8.62414 15.7396C8.4574 15.9064 8.23124 16 7.99543 16V16Z" fill="currentColor"/>
<path d="M2.96685 13.9154C2.79151 13.9149 2.62023 13.8626 2.47456 13.765C2.32888 13.6674 2.21531 13.5289 2.14813 13.367C2.08095 13.205 2.06315 13.0268 2.09699 12.8547C2.13082 12.6827 2.21477 12.5245 2.33828 12.4L4.01371 10.7223C4.18162 10.5615 4.40583 10.4729 4.6383 10.4754C4.87076 10.4779 5.09299 10.5714 5.25738 10.7358C5.42177 10.9002 5.51524 11.1224 5.51775 11.3549C5.52027 11.5873 5.43164 11.8115 5.27085 11.9794L3.59543 13.6549C3.42874 13.8216 3.20264 13.9154 2.96685 13.9154V13.9154Z" fill="currentColor"/>
<path d="M3.25943 8.88913H0.889143C0.653328 8.88913 0.427172 8.79545 0.260425 8.6287C0.0936788 8.46195 -2.86102e-06 8.2358 -2.86102e-06 7.99998C-2.86102e-06 7.76417 0.0936788 7.53801 0.260425 7.37126C0.427172 7.20452 0.653328 7.11084 0.889143 7.11084H3.25943C3.49524 7.11084 3.7214 7.20452 3.88815 7.37126C4.05489 7.53801 4.14857 7.76417 4.14857 7.99998C4.14857 8.2358 4.05489 8.46195 3.88815 8.6287C3.7214 8.79545 3.49524 8.88913 3.25943 8.88913Z" fill="currentColor"/>
<path d="M4.64914 5.53604C4.53236 5.53625 4.41669 5.51334 4.3088 5.46861C4.20092 5.42389 4.10296 5.35825 4.02057 5.27547L2.34515 3.60004C2.18436 3.43213 2.09572 3.20792 2.09824 2.97546C2.10076 2.74299 2.19423 2.52076 2.35862 2.35637C2.523 2.19198 2.74524 2.09852 2.97771 2.096C3.21017 2.09348 3.43438 2.18211 3.60229 2.3429L5.27771 4.01833C5.402 4.14268 5.48664 4.30108 5.52093 4.47352C5.55521 4.64596 5.5376 4.82469 5.47033 4.98712C5.40305 5.14955 5.28914 5.2884 5.14298 5.3861C4.99681 5.48381 4.82496 5.53598 4.64914 5.53604V5.53604Z" fill="currentColor"/>
</g>
<defs>
<clipPath id="clip0_206_969">
<rect width="16" height="16" fill="none"/>
</clipPath>
</defs>
</svg>
