<svg width="130" height="30" viewBox="0 0 130 30" fill="none" xmlns="http://www.w3.org/2000/svg">
<path d="M43.4714 12.672L40.2074 28H32.6554L29.3594 12.672H34.9914L36.3674 22.496H36.7834L38.2554 12.672H43.4714ZM50.8444 16.864C50.2897 16.864 49.927 17.056 49.7564 17.44C49.5857 17.8027 49.5004 18.368 49.5004 19.136H52.2844V18.368C52.2844 17.3653 51.8044 16.864 50.8444 16.864ZM50.9724 12.288C53.1697 12.288 54.7377 12.8213 55.6764 13.888C56.6364 14.9333 57.1164 16.4373 57.1164 18.4C57.1164 18.656 57.0417 19.808 56.8924 21.856H49.5964C49.5964 23.456 50.3324 24.256 51.8044 24.256C52.5084 24.256 53.8844 24.0107 55.9324 23.52L56.3804 27.488C54.5884 28.0427 52.7964 28.32 51.0044 28.32C48.807 28.32 47.1217 27.6053 45.9484 26.176C44.775 24.7253 44.1884 22.7627 44.1884 20.288C44.1884 14.9547 46.4497 12.288 50.9724 12.288ZM58.6006 24.48V7.488H63.8806V22.784C63.8806 23.1467 63.9553 23.4027 64.1046 23.552C64.2753 23.7013 64.5633 23.776 64.9686 23.776L64.5526 28.32H62.7926C61.3846 28.32 60.3286 28.032 59.6246 27.456C58.942 26.8587 58.6006 25.8667 58.6006 24.48ZM74.7094 28.032C73.1307 28.224 71.7547 28.32 70.5814 28.32C69.4294 28.32 68.5227 28.0213 67.8614 27.424C67.2214 26.8053 66.9014 25.7493 66.9014 24.256V16.832H65.3654V12.864H67.1574L67.4454 9.92H72.2774V12.864H75.1254L74.9014 16.832H72.2454V23.2C72.2454 23.648 72.4587 23.872 72.8854 23.872C72.928 23.872 73.5894 23.84 74.8694 23.776L74.7094 28.032ZM81.5376 19.392V28H76.2256V12.672H80.8976L81.2176 13.6H81.3456C81.8363 13.0453 82.327 12.6933 82.8176 12.544C83.3296 12.3733 84.151 12.288 85.2816 12.288L85.0576 17.408H83.5856C82.7536 17.408 82.199 17.536 81.9216 17.792C81.6656 18.048 81.5376 18.5813 81.5376 19.392ZM92.6569 16.864C92.1022 16.864 91.7395 17.056 91.5689 17.44C91.3982 17.8027 91.3129 18.368 91.3129 19.136H94.0969V18.368C94.0969 17.3653 93.6169 16.864 92.6569 16.864ZM92.7849 12.288C94.9822 12.288 96.5502 12.8213 97.4889 13.888C98.4489 14.9333 98.9289 16.4373 98.9289 18.4C98.9289 18.656 98.8542 19.808 98.7049 21.856H91.4089C91.4089 23.456 92.1449 24.256 93.6169 24.256C94.3209 24.256 95.6969 24.0107 97.7449 23.52L98.1929 27.488C96.4009 28.0427 94.6089 28.32 92.8169 28.32C90.6195 28.32 88.9342 27.6053 87.7609 26.176C86.5875 24.7253 86.0009 22.7627 86.0009 20.288C86.0009 14.9547 88.2622 12.288 92.7849 12.288ZM105.757 13.792C106.93 12.7893 108.221 12.288 109.629 12.288C111.037 12.288 112.018 12.6187 112.573 13.28C113.149 13.92 113.437 14.8907 113.437 16.192V28H107.997V18.016C107.997 17.4827 107.762 17.216 107.293 17.216C106.696 17.216 106.194 17.3653 105.789 17.664V28H100.413V12.672H105.309L105.629 13.792H105.757ZM128.919 28.192L126.775 28.32C125.132 28.32 124.129 27.776 123.767 26.688H123.607C122.903 27.776 121.825 28.32 120.375 28.32C118.455 28.32 117.1 27.648 116.311 26.304C115.543 24.96 115.159 22.9653 115.159 20.32C115.159 17.6533 115.596 15.648 116.471 14.304C117.345 12.96 118.604 12.288 120.247 12.288C121.377 12.288 122.252 12.5547 122.871 13.088V7.488H128.215V23.296C128.215 23.7013 128.3 23.9787 128.471 24.128C128.641 24.256 128.951 24.32 129.399 24.32L128.919 28.192ZM121.655 16.8C121.207 16.8 120.908 17.0773 120.759 17.632C120.609 18.1653 120.535 18.944 120.535 19.968C120.535 20.9707 120.545 21.6533 120.567 22.016C120.588 22.3787 120.631 22.752 120.695 23.136C120.78 23.4987 120.897 23.7547 121.047 23.904C121.217 24.032 121.484 24.096 121.847 24.096C122.231 24.096 122.625 24 123.031 23.808V17.184C122.583 16.928 122.124 16.8 121.655 16.8Z" fill="#141414"/>
<g clip-path="url(#clip0_7_166)">
<path fill-rule="evenodd" clip-rule="evenodd" d="M12.0625 2C12.7742 10.3872 5.5 13.2747 5.5 20.662C5.5 25.6798 9.0805 29.9627 16 30C22.9195 30.0373 26.5 24.8503 26.5 19.5513C26.5 14.7202 24.0943 10.1643 19.556 7.33167C20.634 10.3732 19.199 13.151 17.8048 14.1077C17.8865 10.2145 16.4923 4.43717 12.0625 2ZM17.5587 17.1667C21.9395 21.8205 19.2492 27.6667 15.7305 27.6667C13.5897 27.6667 12.4883 26.1908 12.5 24.6602C12.5222 21.8217 15.6932 21.8193 17.5587 17.1667Z" fill="#141414"/>
</g>
<defs>
<clipPath id="clip0_7_166">
<rect width="28" height="28" fill="white" transform="translate(2 2)"/>
</clipPath>
</defs>
</svg>
