<svg viewBox="0 0 16 16" fill="none" xmlns="http://www.w3.org/2000/svg">
<path d="M7.99999 15.9999C7.65728 15.9993 7.32538 15.8799 7.06083 15.662C6.79628 15.4442 6.61545 15.1413 6.54915 14.8051C6.48284 14.4688 6.53517 14.12 6.69721 13.818C6.85924 13.516 7.12096 13.2796 7.43778 13.1489C7.75461 13.0182 8.10694 13.0014 8.43475 13.1014C8.76257 13.2014 9.04558 13.4119 9.23559 13.6971C9.4256 13.9823 9.51084 14.3246 9.47679 14.6656C9.44275 15.0067 9.29153 15.3253 9.04889 15.5674C8.91288 15.7073 8.74964 15.8179 8.56924 15.8923C8.38884 15.9667 8.19511 16.0033 7.99999 15.9999Z" fill="currentColor"/>
<path d="M7.99999 9.48152C7.65728 9.4809 7.32538 9.36149 7.06083 9.14362C6.79628 8.92574 6.61545 8.6229 6.54915 8.28666C6.48284 7.95041 6.53517 7.60159 6.69721 7.29959C6.85924 6.9976 7.12096 6.76113 7.43778 6.63046C7.75461 6.49979 8.10694 6.48302 8.43475 6.58298C8.76257 6.68294 9.04558 6.89346 9.23559 7.17868C9.4256 7.4639 9.51084 7.80619 9.47679 8.14721C9.44275 8.48823 9.29153 8.8069 9.04889 9.04893C8.91288 9.18887 8.74964 9.29945 8.56924 9.37385C8.38884 9.44825 8.19511 9.48489 7.99999 9.48152Z" fill="currentColor"/>
<path d="M7.99999 2.96296C7.65728 2.96235 7.32538 2.84293 7.06083 2.62506C6.79628 2.40719 6.61545 2.10434 6.54915 1.7681C6.48284 1.43186 6.53517 1.08303 6.69721 0.78104C6.85924 0.479049 7.12096 0.242574 7.43778 0.111905C7.75461 -0.018764 8.10694 -0.0355392 8.43475 0.0644239C8.76257 0.164387 9.04558 0.374905 9.23559 0.660127C9.4256 0.945349 9.51084 1.28763 9.47679 1.62865C9.44275 1.96967 9.29153 2.28834 9.04889 2.53037C8.91288 2.67031 8.74964 2.78089 8.56924 2.85529C8.38884 2.9297 8.19511 2.96634 7.99999 2.96296Z" fill="currentColor"/>
</svg>
