<svg viewBox="0 0 16 16" fill="none" xmlns="http://www.w3.org/2000/svg">
<path d="M4 15.5C2.89333 15.5 1.95013 15.1153 1.1704 14.3458C0.390133 13.5758 0 12.6447 0 11.5526C0 10.4605 0.390133 9.52947 1.1704 8.75947C1.95013 7.99 2.89333 7.60526 4 7.60526C5.10667 7.60526 6.05013 7.99 6.8304 8.75947C7.61013 9.52947 8 10.4605 8 11.5526C8 12.6447 7.61013 13.5758 6.8304 14.3458C6.05013 15.1153 5.10667 15.5 4 15.5ZM14.88 14.7105L9.76 9.6579C9.6 9.48684 9.42987 9.31263 9.2496 9.13526C9.06987 8.95737 8.89333 8.78947 8.72 8.63158C9.22667 8.31579 9.63333 7.89474 9.94 7.36842C10.2467 6.84211 10.4 6.26316 10.4 5.63158C10.4 4.64474 10.0501 3.80579 9.3504 3.11474C8.65013 2.42421 7.8 2.07895 6.8 2.07895C5.8 2.07895 4.94987 2.42421 4.2496 3.11474C3.54987 3.80579 3.2 4.64474 3.2 5.63158C3.2 5.71053 3.20347 5.78605 3.2104 5.85816C3.2168 5.93079 3.22667 6.00658 3.24 6.08553C3 6.11184 2.73653 6.16447 2.4496 6.24342C2.1632 6.32237 1.90667 6.41447 1.68 6.51974C1.65333 6.375 1.63333 6.23026 1.62 6.08553C1.60667 5.94079 1.6 5.78947 1.6 5.63158C1.6 4.19737 2.10347 2.98342 3.1104 1.98974C4.1168 0.996579 5.34667 0.5 6.8 0.5C8.25333 0.5 9.48347 0.996579 10.4904 1.98974C11.4968 2.98342 12 4.19737 12 5.63158C12 6.19737 11.9101 6.73342 11.7304 7.23974C11.5501 7.74658 11.3 8.21053 10.98 8.63158L16 13.6053L14.88 14.7105ZM2.58 13.5066L4 12.1053L5.4 13.5066L5.98 12.9539L4.56 11.5526L5.98 10.1513L5.42 9.59868L4 11L2.58 9.59868L2.02 10.1513L3.44 11.5526L2.02 12.9539L2.58 13.5066Z" fill="currentColor"/>
</svg>
