<svg viewBox="0 0 16 16" fill="currentColor" xmlns="http://www.w3.org/2000/svg">
<path d="M8.66667 5.33333H3.33333V4.66667H6H8.66667V5.33333ZM8.66667 6.66667H3.33333V6H8.66667V6.66667ZM6.66667 8H3.33333V7.33333H6.66667V8ZM14.1147 16L9.19 11.0753C8.26467 11.658 7.174 12 6 12C2.686 12 0 9.314 0 6C0 2.686 2.686 0 6 0C9.314 0 12 2.686 12 6C12 7.174 11.6573 8.26533 11.0753 9.19L16 14.1147L14.1147 16ZM6 10C8.57267 10 10 8.57333 10 6C10 3.42667 8.57267 2 6 2C3.42733 2 2 3.42667 2 6C2 8.57333 3.42733 10 6 10Z" fill="currentColor"/>
</svg>
