<svg viewBox="0 0 16 16" fill="none" xmlns="http://www.w3.org/2000/svg">
<g clip-path="url(#clip0_139_641)">
<path d="M7.99967 1.45455C11.6755 1.45455 14.6661 4.06691 14.6661 7.27782C14.6661 10.8538 11.2362 13.0676 8.05966 13.0676C6.76838 13.0676 5.80443 12.7789 5.13045 12.5993C4.46381 13.0451 4.06716 13.3535 2.28257 13.9229C2.63922 12.9244 2.76455 11.9244 2.68389 10.8211C2.12524 10.0938 1.33394 9.07564 1.33394 7.27782C1.33328 4.06691 4.32382 1.45455 7.99967 1.45455ZM7.99967 0C3.77451 0 0 3.07345 0 7.27782C0 8.76873 0.491979 10.2327 1.36461 11.3687C1.40127 12.6996 0.682638 14.6095 0.0359985 16C1.77059 15.6582 4.23649 14.9033 5.35444 14.1556C6.29974 14.4065 7.20437 14.5215 8.06033 14.5215C12.7828 14.5215 16 11.0036 16 7.27709C15.9993 3.05091 12.1988 0 7.99967 0ZM7.99967 10.1818H4.66647V9.45455H7.99967V10.1818ZM11.3329 8H4.66647V7.27273H11.3329V8ZM11.3329 5.81818H4.66647V5.09091H11.3329V5.81818Z" fill="currentColor"/>
</g>
<defs>
<clipPath id="clip0_139_641">
<rect width="16" height="16" fill="none"/>
</clipPath>
</defs>
</svg>
