<svg preserveAspectRatio="none" viewBox="0 0 16 16" fill="none" xmlns="http://www.w3.org/2000/svg">
<path d="M8.00114 0C3.77667 0 0.00456903 3.07429 0.00456903 7.27771C0.00321841 8.7546 0.484628 10.1914 1.37541 11.3691C1.41197 12.6994 0.68999 14.6103 0.0479795 16C1.77981 15.6594 4.24504 14.9029 5.36227 14.1554C6.24425 14.3945 7.15363 14.5174 8.0674 14.5211C12.7877 14.5211 16.0046 11.0034 16.0046 7.27771C15.9977 3.05143 12.1936 0 8.00114 0ZM8.05597 12.672C7.13596 12.6567 6.22282 12.5104 5.34399 12.2377C4.72483 12.6514 4.35927 12.9371 2.70513 13.4651C3.03391 12.5453 3.16093 11.5654 3.07754 10.592C2.5589 9.90628 1.82779 8.97371 1.82779 7.30743C1.82779 4.336 4.59689 1.91314 7.99657 1.91314C11.3963 1.91314 14.1654 4.33371 14.1654 7.30743C14.1699 10.6217 10.9941 12.672 8.0514 12.672H8.05597Z" fill="currentColor"/>
<path d="M8.00114 8.86633H4.57404V9.78062H8.00114V8.86633Z" fill="currentColor"/>
<path d="M11.1998 7.03772H4.57404V7.95201H11.1998V7.03772Z" fill="currentColor"/>
<path d="M11.1998 5.20911H4.57404V6.12339H11.1998V5.20911Z" fill="currentColor"/>
</svg>
